<svg width="17" height="16" viewBox="0 0 17 16" fill="none" xmlns="http://www.w3.org/2000/svg">
<path d="M13.974 7.50916C13.974 7.07665 13.939 6.6418 13.8641 6.21631H7.86279V8.66641H11.2995C11.1569 9.45661 10.6986 10.1556 10.0277 10.5998V12.1896H12.078C13.282 11.0814 13.974 9.44492 13.974 7.50916Z" fill="#4285F4"/>
<path d="M7.86248 13.7256C9.57849 13.7256 11.0256 13.1622 12.08 12.1896L10.0297 10.5999C9.45926 10.988 8.72282 11.2077 7.86482 11.2077C6.20493 11.2077 4.79752 10.0879 4.29254 8.58228H2.17676V10.2211C3.25686 12.3696 5.4568 13.7256 7.86248 13.7256Z" fill="#34A853"/>
<path d="M4.29026 8.58225C4.02374 7.79205 4.02374 6.93638 4.29026 6.14618V4.50732H2.17682C1.27439 6.30515 1.27439 8.42327 2.17682 10.2211L4.29026 8.58225Z" fill="#FBBC04"/>
<path d="M7.86248 3.51833C8.76958 3.5043 9.64629 3.84563 10.3032 4.47218L12.1198 2.65565C10.9695 1.57555 9.44289 0.981726 7.86248 1.00043C5.4568 1.00043 3.25686 2.3564 2.17676 4.50725L4.2902 6.1461C4.79285 4.63817 6.20259 3.51833 7.86248 3.51833Z" fill="#EA4335"/>
</svg>
