<?xml version="1.0" encoding="UTF-8" standalone="no"?>
<svg
   id="svg"
   version="1.1"
   width="184.09096"
   height="222.72658"
   viewBox="0 0 184.09096 222.72658"
   sodipodi:docname="iGeo-JustLogo.svg"
   inkscape:version="1.2.1 (9c6d41e410, 2022-07-14)"
   xmlns:inkscape="http://www.inkscape.org/namespaces/inkscape"
   xmlns:sodipodi="http://sodipodi.sourceforge.net/DTD/sodipodi-0.dtd"
   xmlns="http://www.w3.org/2000/svg"
   xmlns:svg="http://www.w3.org/2000/svg">
  <defs
     id="defs11" />
  <sodipodi:namedview
     id="namedview9"
     pagecolor="#ffffff"
     bordercolor="#000000"
     borderopacity="0.25"
     inkscape:showpageshadow="2"
     inkscape:pageopacity="0.0"
     inkscape:pagecheckerboard="true"
     inkscape:deskcolor="#d1d1d1"
     showgrid="false"
     inkscape:zoom="2.4074303"
     inkscape:cx="92.214508"
     inkscape:cy="111.32202"
     inkscape:window-width="1280"
     inkscape:window-height="697"
     inkscape:window-x="-8"
     inkscape:window-y="-8"
     inkscape:window-maximized="1"
     inkscape:current-layer="svg" />
  <path
     id="path0"
     d="m 87.125284,3.9584361 c -23.424,2.85 -39.946997,18.4679999 -44.209997,41.7889999 -2.676,14.64 5.636,36.771 29.451997,78.412994 11.507,20.12 12.841,21.587 19.64,21.587 5.502,0 8.107996,-2.08 13.026996,-10.4 28.55,-48.283994 39.023,-74.068994 36.096,-88.868994 -0.999,-5.053 -1.288,-6.271 -2.068,-8.731 -4.67,-14.724 -16.597,-26.528 -32.111,-31.7809999 -2.828,-0.958 -14.075996,-2.829 -15.399996,-2.562 -0.11,0.022 -2.102,0.272 -4.426,0.554 m 8.549,20.6139999 c 27.654996,4.082 35.871996,39.217 12.802996,54.745 -24.966996,16.804 -56.483996,-10.925 -43.384996,-38.17 5.436,-11.306 18.459,-18.365 30.582,-16.575 m -5.923,14.011 c -14.535,2.218 -18.819,20.724 -6.716,29.007 8.044,5.505 19.053996,2.71 23.169996,-5.881 1.572,-3.28 1.746,-3.994 1.746,-7.166 0,-10.021 -8.465996,-17.445 -18.199996,-15.96 m -58.582997,57.215 c -5.631,0.944 -10.451,4.929004 -11.933,9.865004 -0.759,2.529 -1.012,3.827 -2.079,10.684 -0.24,1.54 -0.602,3.79 -0.806,5 -0.203,1.21 -0.569,3.46 -0.814,5 -0.245,1.54 -0.605,3.79 -0.799,5 -0.195,1.21 -0.549,3.46 -0.786,5 -0.237,1.54 -0.597,3.79 -0.8,5 -0.203,1.21 -0.556,3.415 -0.784,4.9 -0.229,1.485 -0.603,3.915 -0.832,5.4 -0.228,1.485 -0.581,3.69 -0.784,4.9 -0.203,1.21 -0.563,3.46 -0.7999996,5 -0.237,1.54 -0.597,3.79 -0.8,5 -0.203,1.21 -0.563,3.46 -0.8,5 -0.237,1.54 -0.597,3.79 -0.8,5 -0.203,1.21 -0.563,3.46 -0.8,5 -0.237,1.54 -0.597,3.79 -0.8,5 -0.348,2.074 -0.75,4.623 -1.6110001,10.2 -0.204,1.32 -0.556,3.485 -0.783,4.812 -1.3949999,8.171 4.3140001,15.889 12.8269997,17.339 3.764,0.642 147.422993,0.635 151.133993,-0.006 9.074,-1.569 14.781,-9.763 12.864,-18.468 -0.204,-0.922 -0.568,-3.027 -0.811,-4.677 -0.243,-1.65 -0.603,-3.99 -0.801,-5.2 -0.197,-1.21 -0.559,-3.46 -0.804,-5 -0.245,-1.54 -0.611,-3.79 -0.814,-5 -0.204,-1.21 -0.557,-3.415 -0.785,-4.9 -0.229,-1.485 -0.603,-3.915 -0.832,-5.4 -0.228,-1.485 -0.581,-3.69 -0.784,-4.9 -0.203,-1.21 -0.563,-3.46 -0.8,-5 -0.237,-1.54 -0.597,-3.79 -0.8,-5 -0.203,-1.21 -0.563,-3.46 -0.8,-5 -0.237,-1.54 -0.597,-3.79 -0.8,-5 -0.203,-1.21 -0.556,-3.415 -0.784,-4.9 -0.229,-1.485 -0.603,-3.915 -0.832,-5.4 -0.228,-1.485 -0.581,-3.69 -0.784,-4.9 -0.203,-1.21 -0.563,-3.46 -0.8,-5 -0.237,-1.54 -0.599,-3.79 -0.805,-5 -0.205,-1.21 -0.578,-3.55 -0.828,-5.2 -2.514,-16.614004 -6.208,-19.573004 -24.464,-19.592004 l -7.497,-0.008 -2.603,5.194004 c -3.469,6.924 -3.884,6.299 4.297,6.478 7.697,0.169 8.654,0.443 11.949,3.42 2.965,2.679 3.553,4.533 5.551,17.508 0.237,1.54 0.609,3.79 0.826,5 0.217,1.21 0.435,3.28 0.484,4.6 l 0.09,2.4 -2.6,0.131 c -10.219,0.516 -23.184,-2.792 -32.491,-8.289 -1.901,-1.123 -3.542,-2.042 -3.646,-2.042 -0.262,0 -5.063,8.58 -5.063,9.049 0,0.208 0.54,0.697 1.2,1.087 1.783,1.054 1.704,1.196 -4.953,8.923 -3.384,3.927 -8.089996,9.391 -10.458996,12.141 -8.581,9.963 -7.672,9.499 -10.384,5.295 -3.789,-5.876 -9.917,-10.849 -15.441,-12.529 -4.836,-1.471 -5.716,-1.566 -14.583,-1.566 -7.477997,0 -8.979997,-0.095 -8.979997,-0.566 0,-0.484 3.713997,-3.541 18.934997,-15.585 1.356,-1.073 2.522,-2.098 2.591,-2.278 0.185,-0.481 -4.757,-9.171 -5.215,-9.171 -0.214,0 -8.156,6.209 -17.649997,13.798 -19.998,15.986 -20.924,16.485 -19.891,10.706 0.226,-1.267 0.78,-4.644 1.23,-7.504 0.449,-2.86 0.987,-6.19 1.193,-7.4 0.207,-1.21 0.558,-3.37 0.782,-4.8 2.325,-14.904 2.802,-16.491 5.695,-18.967 3.322,-2.843 4.554,-3.182 12.23,-3.356 4.859997,-0.11 6.894997,-0.292 6.882997,-0.617 -0.009,-0.253 -1.224,-2.8 -2.7,-5.66 l -2.682997,-5.200004 -8,-0.057 c -4.4,-0.032 -8.982,0.107 -10.183,0.308 m 96.782993,51.194004 c 7.94,2.548 11.647,3.14199 21.788,3.49299 l 7.587,0.262 0.465,1.80001 c 0.255,0.99 0.683,3.33 0.95,5.19999 0.267,1.87001 0.821,5.38 1.231,7.80001 0.41,2.41999 0.798,5.38999 0.862,6.6 l 0.117,2.19999 -30.1,0.103 c -26.768,0.091 -30.1,0.034 -30.1,-0.50899 0,-0.336 3.447,-4.612 7.659,-9.502 4.213,-4.891 9.477,-11.00701 11.698,-13.59201 4.442,-5.169 4.168,-5.035 7.843,-3.85499 m -62.618996,16.139 c 6.667,1.275 9.107,3.465 16.599,14.89599 16.027,24.45301 18.819996,28.838 18.819996,29.546 0,0.808 -67.254993,0.83601 -70.999993,0.029 -7.865,-1.693 -11.419,-8.442 -9.508,-18.055 0.466,-2.346 0.822,-4.527 1.728,-10.6 0.246,-1.65 0.601,-3.81 0.789,-4.8 0.188,-0.99 0.556,-3.33 0.817,-5.2 0.262,-1.87 0.64,-4.075 0.84,-4.9 l 0.365,-1.5 h 18.749 c 14.774997,0 19.395997,0.124 21.800997,0.584 m 98.049996,24.616 c 1.829,8.964 1.302,12.3 -2.58,16.299 -3.855,3.973 -5.193,4.165 -28.028,4.019 l -18.577,-0.118 -7.122,-10.939 c -3.918,-6.01599 -7.022,-11.102 -6.898,-11.302 0.132,-0.215 13.045,-0.322 31.49,-0.26099 l 31.266,0.102 0.449,2.19999"
     stroke="none"
     fill="#1e8bb2"
     fill-rule="evenodd"
     sodipodi:nodetypes="cccscccccccccccccscccccscssccssssssccccccscscccsssssccssccccccccsccccsscccccssscsccccccccccccccccsscccscccccscccscccscccccccccc"
     style="mix-blend-mode:normal;fill:#ffffff;fill-opacity:0;stroke:#ffffff;stroke-width:6.7;stroke-dasharray:none;stroke-opacity:1;paint-order:stroke fill markers" />
</svg>
